<svg xmlns="http://www.w3.org/2000/svg" width="1024" height="1024" viewBox="0 0 1024 1024">
<g>
<path d="M 456.59 870.94 C444.46,868.91 432.54,859.63 427.15,848.00 C424.91,843.18 424.59,841.14 424.55,831.50 C424.50,821.44 424.75,819.97 427.37,814.28 C430.88,806.68 438.74,798.93 446.53,795.36 C451.44,793.11 461.63,791.46 467.38,791.62 C467.38,791.74 467.42,791.87 467.50,792.00 C467.84,792.55 468.79,793.00 469.62,793.00 C470.42,793.00 470.82,792.57 470.52,792.04 C470.75,792.11 470.95,792.20 471.11,792.30 C474.18,794.22 477.49,790.69 482.84,779.80 C488.35,768.60 492.22,757.95 492.22,754.00 C492.22,753.83 492.23,753.66 492.24,753.49 C492.42,753.80 492.70,754.00 493.00,754.00 C493.55,754.00 494.00,753.07 494.00,751.94 C494.00,750.84 493.58,750.20 493.05,750.47 C493.06,750.45 493.08,750.44 493.09,750.43 C494.59,748.56 497.12,734.79 497.34,727.31 C497.37,726.04 497.44,724.81 497.53,723.71 C497.54,723.72 497.54,723.74 497.55,723.75 C498.27,725.42 498.33,725.42 498.73,723.75 C498.96,722.79 498.96,721.21 498.73,720.25 C498.58,719.65 498.48,719.26 498.38,719.10 C498.73,717.57 499.00,710.78 499.00,702.98 L 499.00 687.29 L 492.31 686.73 C492.59,686.55 492.68,686.29 492.50,686.00 C492.16,685.45 490.98,685.00 489.88,685.00 C488.78,685.00 488.16,685.45 488.50,686.00 C488.58,686.13 488.71,686.26 488.88,686.38 C487.41,686.18 485.66,685.90 483.74,685.56 C483.91,685.40 484.00,685.21 484.00,685.00 C484.00,684.45 483.33,684.00 482.50,684.00 C481.67,684.00 481.00,684.45 481.00,685.00 C481.00,685.02 481.00,685.04 481.00,685.06 C473.03,683.56 463.25,681.36 458.23,679.88 C458.61,679.71 458.73,679.38 458.50,679.00 C458.16,678.45 457.46,678.00 456.94,678.00 C456.42,678.00 456.00,678.45 456.00,679.00 C456.00,679.05 456.01,679.11 456.02,679.16 C455.82,679.08 455.65,679.01 455.50,678.94 C454.40,678.45 450.12,676.85 446.00,675.41 C436.44,672.05 415.57,661.48 406.50,655.41 C384.09,640.40 360.43,615.11 345.79,590.50 C334.47,571.47 325.65,547.74 321.30,524.65 C320.36,519.62 319.34,515.28 319.04,515.00 L 319.04 515.00 C319.57,514.96 320.00,514.07 320.00,513.00 C320.00,511.90 319.55,511.00 319.00,511.00 C318.85,511.00 318.70,511.07 318.57,511.20 C318.42,509.05 318.29,506.17 318.21,503.07 L 317.93 491.64 L 314.05 487.44 C308.44,481.35 306.74,477.43 306.22,469.39 C305.18,453.37 312.73,444.00 329.12,440.98 C330.42,440.74 331.43,440.57 332.31,440.48 C332.44,440.62 332.67,440.79 333.00,441.00 C334.94,442.25 337.22,442.27 336.53,441.06 C337.84,441.54 339.43,442.33 341.80,443.53 C345.70,445.51 349.93,448.55 351.26,450.31 C359.65,461.40 358.49,476.55 348.47,487.00 L 345.11 490.50 L 345.52 495.41 C345.39,495.47 345.21,495.67 345.00,496.00 C344.47,496.83 344.02,498.29 344.02,499.25 C344.01,500.21 344.45,501.00 345.00,501.00 C345.37,501.00 345.69,500.35 345.86,499.38 L 345.99 501.00 C346.39,505.75 346.84,510.06 347.36,514.08 C347.08,513.91 346.73,513.93 346.40,514.27 C346.07,514.60 346.15,515.44 346.58,516.13 C347.14,517.04 347.39,517.14 347.68,516.44 C347.85,517.66 348.03,518.85 348.21,520.01 C347.97,519.92 347.68,519.99 347.40,520.27 C347.07,520.60 347.15,521.44 347.58,522.13 C348.12,523.00 348.37,523.13 348.64,522.53 C350.54,533.27 353.30,542.39 357.72,553.50 C376.03,599.51 412.37,635.33 456.63,651.00 C467.07,654.69 481.67,658.32 482.94,657.53 C483.02,657.49 483.17,657.45 483.36,657.44 C483.31,657.58 483.36,657.77 483.50,658.00 C483.84,658.55 485.33,658.97 486.81,658.93 C489.21,658.87 489.29,658.77 487.50,658.00 C487.44,657.97 487.38,657.95 487.32,657.92 C487.92,658.05 488.54,658.19 489.17,658.35 C491.44,658.94 498.48,659.32 506.01,659.48 C504.72,659.61 503.67,659.79 503.00,660.00 C501.43,660.50 504.96,660.83 512.50,660.89 C520.58,660.94 524.01,660.65 523.00,660.00 C522.65,659.77 521.81,659.59 520.64,659.46 C524.92,659.33 528.05,659.09 528.67,658.71 C528.97,658.52 530.38,658.28 532.35,658.06 C530.39,658.43 528.87,658.88 528.50,659.24 C527.84,659.89 529.55,659.99 533.50,659.53 C536.80,659.14 539.94,658.40 540.49,657.88 C540.73,657.64 540.60,657.48 540.11,657.40 C562.63,655.23 591.71,642.12 614.89,623.57 C624.56,615.84 641.55,597.77 648.85,587.47 C656.23,577.05 666.56,556.42 670.88,543.50 C674.63,532.27 678.10,515.37 677.45,511.67 C677.61,511.88 677.80,512.00 678.00,512.00 C678.55,512.00 679.00,510.85 679.00,509.44 C679.00,507.99 678.57,507.15 678.00,507.50 C678.01,507.49 678.01,507.49 678.02,507.48 C678.87,506.45 679.11,503.49 678.79,497.96 C678.70,496.37 678.61,495.07 678.50,493.99 L 679.50 499.50 L 679.81 495.10 C680.01,492.35 679.62,490.19 678.77,489.34 C677.90,488.47 677.66,488.66 677.99,490.97 C677.52,489.28 676.73,488.25 675.28,486.72 C669.73,480.87 668.51,477.40 668.50,467.50 C668.50,459.46 668.80,458.00 671.27,453.78 C674.37,448.52 678.96,444.60 684.09,442.84 C685.82,442.25 687.51,441.39 688.03,440.85 C688.01,440.90 688.00,440.95 688.00,441.00 C688.00,442.25 689.06,442.25 691.00,441.00 C691.29,440.81 691.51,440.66 691.64,440.53 C692.92,440.68 694.52,440.94 696.35,441.31 C708.91,443.87 715.55,449.84 718.57,461.25 C718.86,462.36 719.06,463.49 719.17,464.63 C719.12,464.58 719.06,464.54 719.00,464.50 C718.43,464.15 718.00,465.01 718.00,466.50 C718.00,467.99 718.43,468.85 719.00,468.50 C719.08,468.45 719.15,468.39 719.23,468.32 C718.78,474.69 715.63,481.26 709.95,487.50 C707.54,490.14 707.15,491.52 706.70,499.00 C706.69,499.10 706.69,499.20 706.68,499.30 C706.56,499.29 706.36,499.88 706.00,501.00 C705.56,502.38 705.15,504.09 705.10,504.81 C705.04,505.53 705.45,505.84 706.00,505.50 C706.08,505.45 706.15,505.38 706.22,505.29 C700.14,570.85 661.75,630.36 604.50,662.29 C589.73,670.53 569.11,678.86 556.94,681.51 C552.85,682.40 548.38,683.54 547.00,684.05 C546.61,684.20 546.10,684.35 545.50,684.50 C546.07,684.29 546.59,684.05 547.00,683.80 C548.02,683.16 547.42,683.05 545.12,683.43 C543.27,683.75 541.13,684.00 540.38,684.00 C539.62,684.00 539.00,684.44 539.00,684.97 C539.00,685.31 539.52,685.46 540.30,685.48 C538.06,685.82 535.58,686.10 533.26,686.28 C533.36,686.19 533.44,686.10 533.50,686.00 C533.84,685.45 533.44,685.00 532.62,685.00 C531.79,685.00 530.84,685.45 530.50,686.00 C530.40,686.17 530.36,686.33 530.39,686.47 C525.80,686.82 525.70,688.05 526.38,700.05 C526.45,701.21 526.50,702.37 526.53,703.55 C526.30,704.14 525.99,706.37 525.61,710.25 C525.18,714.64 525.30,717.00 525.97,717.00 C526.11,717.00 526.24,716.84 526.36,716.55 C526.21,719.41 525.99,722.29 525.70,725.20 C525.55,725.23 525.32,725.50 525.00,726.00 C524.47,726.83 524.02,728.09 524.02,728.81 C524.01,729.53 524.45,729.84 525.00,729.50 C525.08,729.45 525.17,729.37 525.24,729.28 C525.07,730.70 524.89,732.12 524.68,733.55 C524.59,733.47 524.42,733.62 524.18,734.00 C523.67,734.83 522.93,737.70 522.54,740.38 C522.16,743.06 521.60,745.87 521.31,746.63 C521.02,747.38 521.23,748.00 521.77,748.00 C521.90,748.00 522.04,747.89 522.18,747.68 C517.94,767.71 510.95,786.58 502.52,798.83 C500.59,801.65 499.00,804.67 499.00,805.55 C499.00,806.43 500.12,809.06 501.50,811.40 C504.33,816.24 506.14,820.80 506.98,825.25 C506.80,825.08 506.61,825.06 506.43,825.24 C506.14,825.53 506.24,827.05 506.66,828.63 C507.04,830.09 507.30,830.67 507.51,830.46 C507.53,831.62 507.49,832.78 507.37,833.93 C506.38,844.04 503.61,850.28 496.97,857.37 C485.84,869.27 472.80,873.66 456.59,870.94 Z" fill="rgba(6,134,150,1)"/>
<path d="M 506.66 828.63 C506.24,827.05 506.14,825.53 506.43,825.24 C507.23,824.43 508.22,827.65 507.79,829.69 C507.51,831.02 507.21,830.75 506.66,828.63 Z" fill="rgba(6,64,75,1)"/>
<path d="M 521.31 746.63 C521.60,745.87 522.16,743.06 522.54,740.38 C522.93,737.70 523.67,734.83 524.18,734.00 C524.82,732.97 524.95,733.60 524.58,736.00 C524.29,737.92 523.76,741.41 523.40,743.75 C523.04,746.09 522.30,748.00 521.77,748.00 C521.23,748.00 521.02,747.38 521.31,746.63 ZM 528.50 659.24 C529.05,658.70 532.19,657.96 535.49,657.59 C539.28,657.17 541.11,657.28 540.49,657.88 C539.94,658.40 536.80,659.14 533.50,659.53 C529.55,659.99 527.84,659.89 528.50,659.24 ZM 525.61 710.25 C526.50,701.25 527.00,701.10 527.00,709.83 C527.00,714.07 526.58,717.00 525.97,717.00 C525.30,717.00 525.18,714.64 525.61,710.25 ZM 539.00 684.97 C539.00,684.44 539.62,684.00 540.38,684.00 C541.13,684.00 543.27,683.75 545.12,683.43 C547.42,683.05 548.02,683.16 547.00,683.80 C544.67,685.24 539.00,686.08 539.00,684.97 ZM 497.55 723.75 C497.13,722.79 497.13,721.21 497.55,720.25 C498.27,718.58 498.33,718.58 498.73,720.25 C498.96,721.21 498.96,722.79 498.73,723.75 C498.33,725.42 498.27,725.42 497.55,723.75 ZM 677.00 510.06 C677.00,508.99 677.45,507.84 678.00,507.50 C678.57,507.15 679.00,507.99 679.00,509.44 C679.00,510.85 678.55,512.00 678.00,512.00 C677.45,512.00 677.00,511.13 677.00,510.06 ZM 705.10 504.81 C705.15,504.09 705.56,502.38 706.00,501.00 C706.76,498.61 706.81,498.64 706.90,501.69 C706.96,503.45 706.55,505.16 706.00,505.50 C705.45,505.84 705.04,505.53 705.10,504.81 ZM 718.00 466.50 C718.00,465.01 718.43,464.15 719.00,464.50 C719.55,464.84 720.00,465.74 720.00,466.50 C720.00,467.26 719.55,468.16 719.00,468.50 C718.43,468.85 718.00,467.99 718.00,466.50 ZM 488.50 686.00 C488.16,685.45 488.78,685.00 489.88,685.00 C490.98,685.00 492.16,685.45 492.50,686.00 C492.84,686.55 492.22,687.00 491.12,687.00 C490.02,687.00 488.84,686.55 488.50,686.00 ZM 318.00 513.00 C318.00,511.90 318.45,511.00 319.00,511.00 C319.55,511.00 320.00,511.90 320.00,513.00 C320.00,514.10 319.55,515.00 319.00,515.00 C318.45,515.00 318.00,514.10 318.00,513.00 ZM 483.50 658.00 C482.76,656.81 484.72,656.81 487.50,658.00 C489.29,658.77 489.21,658.87 486.81,658.93 C485.33,658.97 483.84,658.55 483.50,658.00 ZM 524.02 728.81 C524.02,728.09 524.47,726.83 525.00,726.00 C525.79,724.78 525.97,724.91 525.98,726.69 C525.99,727.90 525.55,729.16 525.00,729.50 C524.45,729.84 524.01,729.53 524.02,728.81 ZM 492.00 752.56 C492.00,751.77 492.45,750.84 493.00,750.50 C493.55,750.16 494.00,750.81 494.00,751.94 C494.00,753.07 493.55,754.00 493.00,754.00 C492.45,754.00 492.00,753.35 492.00,752.56 ZM 530.50 686.00 C530.84,685.45 531.79,685.00 532.62,685.00 C533.44,685.00 533.84,685.45 533.50,686.00 C533.16,686.55 532.21,687.00 531.38,687.00 C530.56,687.00 530.16,686.55 530.50,686.00 ZM 481.00 685.00 C481.00,684.45 481.67,684.00 482.50,684.00 C483.33,684.00 484.00,684.45 484.00,685.00 C484.00,685.55 483.33,686.00 482.50,686.00 C481.67,686.00 481.00,685.55 481.00,685.00 ZM 456.00 679.00 C456.00,678.45 456.42,678.00 456.94,678.00 C457.46,678.00 458.16,678.45 458.50,679.00 C458.84,679.55 458.42,680.00 457.56,680.00 C456.70,680.00 456.00,679.55 456.00,679.00 ZM 346.58 516.13 C346.15,515.44 346.07,514.60 346.40,514.27 C347.29,513.37 348.27,514.69 347.79,516.14 C347.45,517.15 347.21,517.15 346.58,516.13 ZM 347.58 522.13 C347.15,521.44 347.07,520.60 347.40,520.27 C348.29,519.37 349.27,520.69 348.79,522.14 C348.45,523.15 348.21,523.15 347.58,522.13 Z" fill="rgba(7,76,87,1)"/>
<path d="M 503.00 660.00 C506.59,658.85 521.22,658.85 523.00,660.00 C524.01,660.65 520.58,660.94 512.50,660.89 C504.96,660.83 501.43,660.50 503.00,660.00 ZM 678.46 493.74 C677.58,488.89 677.63,488.20 678.77,489.34 C679.62,490.19 680.01,492.35 679.81,495.10 L 679.50 499.50 ZM 344.02 499.25 C344.02,498.29 344.47,496.83 345.00,496.00 C345.74,494.86 345.97,495.28 345.98,497.75 C345.99,499.54 345.55,501.00 345.00,501.00 C344.45,501.00 344.01,500.21 344.02,499.25 ZM 333.00 441.00 C331.78,440.21 331.91,440.03 333.69,440.02 C334.90,440.01 336.16,440.45 336.50,441.00 C337.29,442.27 334.97,442.27 333.00,441.00 ZM 688.00 441.00 C688.00,440.45 689.01,440.01 690.25,440.02 C692.07,440.03 692.21,440.22 691.00,441.00 C689.06,442.25 688.00,442.25 688.00,441.00 ZM 467.50 792.00 C467.16,791.45 467.56,791.00 468.38,791.00 C469.21,791.00 470.16,791.45 470.50,792.00 C470.84,792.55 470.44,793.00 469.62,793.00 C468.79,793.00 467.84,792.55 467.50,792.00 Z" fill="rgba(10,110,124,1)"/>
<path d="M 507.89 582.75 C506.46,581.51 497.45,571.72 487.86,561.00 C478.28,550.28 460.52,530.47 448.39,517.00 C393.00,455.43 371.14,427.44 358.05,401.30 C344.54,374.31 339.00,351.47 339.00,322.77 C339.00,286.68 350.56,252.30 372.78,222.37 C381.57,210.53 402.31,190.09 414.02,181.75 C425.47,173.58 446.04,163.19 459.00,159.02 C473.59,154.33 481.80,152.50 494.91,151.86 C494.87,151.93 494.83,152.00 494.81,152.07 C494.61,152.66 489.51,154.00 483.48,155.04 C447.31,161.28 415.48,178.62 388.14,206.98 C382.45,212.88 367.20,233.16 363.20,240.15 C358.31,248.70 350.23,267.44 347.58,276.38 C342.87,292.25 341.50,303.05 341.51,324.00 C341.52,339.06 341.92,345.14 343.26,350.70 C344.22,354.66 345.01,359.38 345.01,361.20 C345.05,370.15 358.31,401.20 369.50,418.55 C377.67,431.21 396.11,455.54 405.46,466.02 C407.68,468.50 411.98,473.44 415.00,477.00 C418.02,480.55 423.20,486.48 426.50,490.17 C429.80,493.86 435.03,499.72 438.11,503.19 C441.20,506.66 450.88,517.40 459.61,527.06 C468.35,536.72 480.23,549.99 486.00,556.55 C491.77,563.10 499.59,571.74 503.38,575.74 C507.16,579.73 511.07,583.00 512.08,583.00 C513.16,583.00 518.49,577.79 525.20,570.16 C531.42,563.10 546.85,545.86 559.50,531.84 C572.15,517.82 587.67,500.35 594.00,493.02 C600.33,485.69 608.46,476.28 612.08,472.10 C619.81,463.18 641.74,435.90 647.54,428.00 C656.86,415.31 666.39,398.19 671.85,384.32 C676.66,372.11 683.00,346.45 683.00,339.19 C683.00,337.99 683.45,337.00 684.00,337.00 C684.11,337.00 684.22,336.96 684.32,336.90 C683.18,350.46 680.37,364.07 675.85,377.46 C667.30,402.80 653.89,424.36 625.12,459.00 C615.80,470.23 576.59,515.43 563.88,529.61 C560.37,533.53 550.12,545.00 541.09,555.11 C519.97,578.78 513.92,585.00 512.03,585.00 C511.19,584.99 509.33,583.98 507.89,582.75 ZM 497.99 151.74 C501.42,151.62 505.20,151.58 509.50,151.57 C532.91,151.52 542.65,152.98 562.50,159.50 C600.31,171.92 635.86,199.64 658.45,234.29 C677.88,264.10 686.76,298.56 684.57,333.42 C684.38,333.16 684.14,333.00 683.89,333.00 C683.14,333.00 682.99,331.55 683.44,328.57 C684.87,318.99 681.11,290.83 676.35,275.50 C659.72,221.91 611.97,175.44 557.29,159.63 C542.79,155.44 532.38,153.88 514.75,153.28 C505.54,152.96 498.00,152.32 498.00,151.85 C498.00,151.81 498.00,151.77 497.99,151.74 ZM 519.00 235.00 C519.00,235.57 516.00,236.00 512.00,236.00 C508.00,236.00 505.00,235.57 505.00,235.00 C505.00,234.43 508.00,234.00 512.00,234.00 C516.00,234.00 519.00,234.43 519.00,235.00 ZM 557.00 323.50 C557.00,325.36 556.55,327.16 556.00,327.50 C555.39,327.88 555.00,326.32 555.00,323.50 C555.00,320.68 555.39,319.12 556.00,319.50 C556.55,319.84 557.00,321.64 557.00,323.50 Z" fill="rgba(250,106,10,1)"/>
<path d="M 503.38 575.74 C499.59,571.74 491.77,563.10 486.00,556.55 C480.23,549.99 468.35,536.72 459.61,527.06 C450.88,517.40 441.20,506.66 438.11,503.19 C435.03,499.72 429.80,493.86 426.50,490.17 C423.20,486.48 418.02,480.55 415.00,477.00 C411.98,473.44 407.68,468.50 405.46,466.02 C396.11,455.54 377.67,431.21 369.50,418.55 C358.31,401.20 345.05,370.15 345.01,361.20 C345.01,360.32 344.82,358.76 344.52,356.93 C345.54,361.36 346.53,365.23 346.94,366.24 C347.43,367.48 348.66,371.31 349.67,374.74 C350.68,378.17 351.84,380.99 352.25,380.99 C352.66,381.00 353.00,381.52 353.00,382.15 C353.00,384.72 364.77,407.26 367.02,409.00 C367.38,409.27 368.20,410.40 368.84,411.50 C369.87,413.26 369.94,413.15 369.43,410.50 C369.11,408.85 368.81,406.94 368.76,406.25 C368.71,405.56 368.04,405.00 367.27,405.00 C366.48,405.00 366.19,404.51 366.60,403.85 C367.01,403.17 366.87,402.96 366.26,403.34 C365.20,404.00 364.47,402.76 362.96,397.73 C362.50,396.21 362.48,395.18 362.91,395.45 C363.34,395.71 364.64,395.05 365.80,393.98 C367.13,392.73 368.13,392.40 368.55,393.08 C368.97,393.76 369.90,393.50 371.16,392.35 C372.85,390.82 373.26,390.78 374.16,392.04 C374.98,393.21 375.07,393.13 374.58,391.63 C374.09,390.13 374.37,389.86 375.98,390.29 C377.09,390.58 378.29,390.33 378.65,389.75 C379.05,389.11 378.83,388.99 378.09,389.45 C377.31,389.93 376.67,389.44 376.32,388.11 C376.00,386.89 375.30,386.31 374.64,386.70 C374.01,387.08 374.10,386.64 374.84,385.74 C375.57,384.83 375.84,383.55 375.43,382.89 C374.95,382.12 375.12,381.95 375.89,382.43 C376.73,382.95 376.91,382.49 376.49,380.81 C375.95,378.65 376.19,378.47 379.49,378.63 C382.24,378.76 382.84,378.51 382.05,377.56 C381.48,376.87 381.31,376.02 381.67,375.66 C382.03,375.31 381.55,374.17 380.62,373.13 C379.06,371.41 379.05,371.19 380.54,370.62 C381.43,370.28 383.01,370.00 384.05,370.00 C386.27,370.00 387.86,367.39 388.18,363.26 C388.35,360.95 388.80,360.40 390.19,360.76 C391.17,361.02 391.72,361.64 391.41,362.14 C390.70,363.29 393.04,362.83 394.60,361.50 C395.30,360.91 395.46,359.88 394.98,358.99 C394.50,358.08 394.75,356.70 395.59,355.54 C397.53,352.90 397.37,352.19 394.75,351.81 C392.64,351.51 392.70,351.37 395.70,349.56 C397.45,348.50 398.68,347.30 398.43,346.89 C398.18,346.47 398.49,345.81 399.14,345.41 C399.84,344.98 400.04,345.12 399.65,345.76 C399.28,346.36 399.77,347.64 400.74,348.61 C402.42,350.31 402.42,350.36 400.68,349.70 C399.29,349.17 398.94,349.43 399.19,350.75 C399.37,351.71 400.53,352.64 401.76,352.82 C403.46,353.06 404.00,352.64 404.00,351.07 C404.00,349.93 404.51,349.00 405.14,349.00 C406.64,349.00 408.93,345.93 408.97,343.86 C409.01,341.93 411.75,336.39 412.49,336.75 C413.92,337.45 414.80,336.82 414.56,335.25 C414.23,333.06 415.92,328.00 416.99,328.00 C418.05,328.00 418.97,330.54 419.12,333.83 C419.24,336.49 419.24,336.49 420.00,333.50 C420.75,330.54 420.77,330.54 420.88,333.14 C420.95,334.60 421.71,336.06 422.57,336.39 C423.61,336.79 423.92,337.66 423.50,339.00 C423.11,340.23 423.32,341.00 424.05,341.00 C424.71,341.00 425.02,341.82 424.75,342.85 C424.48,343.86 424.87,345.78 425.60,347.10 C426.33,348.42 426.95,350.44 426.96,351.58 C426.98,352.72 428.12,355.87 429.50,358.58 C430.87,361.29 431.99,363.81 432.00,364.20 C432.00,365.34 438.65,376.31 440.91,378.90 C442.06,380.22 443.00,381.74 443.00,382.28 C443.00,383.99 504.39,445.19 507.50,446.58 C511.40,448.32 512.54,448.31 516.40,446.48 C519.82,444.86 562.70,401.79 582.08,380.50 C587.77,374.25 597.96,353.43 598.47,346.98 C598.54,346.15 598.87,345.02 599.20,344.48 C600.38,342.57 602.00,331.55 602.06,325.07 C602.09,321.45 602.49,316.70 602.94,314.50 L 603.77 310.50 L 603.98 314.50 C604.15,317.63 604.34,318.00 604.85,316.19 C606.43,310.57 609.03,315.42 608.47,322.94 C608.30,325.22 608.76,328.24 609.49,329.65 L 610.83 332.23 L 611.17 329.86 C611.59,326.90 615.80,326.01 617.63,328.51 C618.39,329.55 619.37,329.90 620.18,329.41 C621.21,328.79 621.25,328.94 620.38,330.06 C619.50,331.18 619.80,332.05 621.76,334.00 C623.14,335.38 624.02,336.04 623.72,335.48 C623.42,334.92 624.24,333.96 625.54,333.35 C627.48,332.43 628.20,332.56 629.55,334.05 C630.47,335.08 631.87,335.60 632.76,335.26 C633.75,334.88 634.08,335.07 633.65,335.76 C632.40,337.78 635.10,338.22 637.23,336.35 C638.39,335.33 639.01,335.06 638.61,335.75 C638.12,336.59 638.58,337.00 640.00,337.00 C641.40,337.00 641.88,336.58 641.41,335.75 C640.88,334.81 641.01,334.78 641.92,335.62 C642.97,336.58 643.63,338.42 643.92,341.22 C643.97,341.61 644.63,341.70 645.40,341.40 C646.17,341.11 647.09,341.34 647.46,341.93 C647.82,342.52 648.57,343.00 649.12,343.00 C649.67,343.00 649.80,342.48 649.40,341.85 C648.99,341.18 649.13,340.96 649.73,341.33 C650.30,341.69 651.30,341.35 651.94,340.58 C652.78,339.56 652.79,338.99 651.99,338.49 C651.25,338.04 651.48,337.37 652.68,336.49 C653.67,335.77 654.82,335.39 655.24,335.65 C656.33,336.32 656.18,341.00 655.07,341.00 C654.55,341.00 653.83,341.96 653.46,343.13 C653.01,344.53 652.53,344.86 652.06,344.10 C651.66,343.45 650.55,343.23 649.57,343.61 C648.50,344.02 647.45,343.74 646.91,342.90 C646.31,341.95 646.03,341.89 646.02,342.72 C646.01,343.44 645.32,343.68 644.34,343.30 C643.22,342.87 642.91,343.04 643.39,343.83 C643.80,344.49 643.55,345.01 642.81,345.03 C641.06,345.08 645.81,349.00 647.61,349.00 C648.37,349.00 649.00,349.67 649.00,350.50 C649.00,351.33 649.19,352.00 649.42,352.00 C649.65,352.00 650.66,352.31 651.67,352.69 C653.34,353.31 653.37,353.21 652.00,351.48 C650.57,349.68 650.60,349.67 652.71,351.12 C653.93,351.95 655.86,353.83 657.01,355.28 C658.90,357.69 658.96,358.18 657.67,360.71 C656.29,363.41 656.34,363.74 658.73,367.89 C658.85,368.11 659.64,367.72 660.48,367.02 C662.83,365.06 662.40,362.01 659.75,361.92 C658.51,361.88 658.07,361.61 658.76,361.34 C659.45,361.06 659.76,360.42 659.45,359.91 C659.14,359.41 659.33,359.00 659.88,359.00 C660.43,359.00 661.16,359.45 661.50,360.00 C662.34,361.37 665.72,361.26 666.60,359.85 C667.07,359.07 666.85,358.96 665.90,359.49 C664.71,360.17 664.71,360.08 665.88,358.90 C666.94,357.81 667.35,357.78 667.71,358.76 C667.96,359.45 668.58,359.76 669.09,359.45 C669.59,359.13 670.40,359.93 670.89,361.21 C671.95,364.01 671.51,369.33 670.17,369.78 C669.64,369.95 669.45,371.02 669.75,372.15 C670.06,373.33 669.70,374.58 668.89,375.09 C667.90,375.72 667.85,375.97 668.75,375.98 C669.44,375.99 670.00,376.93 670.00,378.06 C670.00,379.36 669.58,379.86 668.85,379.40 C668.11,378.95 667.96,379.13 668.43,379.89 C669.60,381.78 671.51,379.61 673.43,374.24 C674.36,371.63 675.60,368.62 676.19,367.55 C676.78,366.48 677.64,362.27 678.10,358.20 C678.55,354.13 679.34,350.28 679.84,349.65 C680.35,349.02 681.51,342.95 682.42,336.17 C683.80,325.85 683.90,321.76 683.00,311.17 C682.91,310.20 682.82,309.25 682.73,308.29 C683.71,316.83 684.06,324.43 683.44,328.57 C682.99,331.55 683.14,333.00 683.89,333.00 C684.50,333.00 685.00,333.90 685.00,335.00 C685.00,336.10 684.55,337.00 684.00,337.00 C683.45,337.00 683.00,337.99 683.00,339.19 C683.00,346.45 676.66,372.11 671.85,384.32 C666.39,398.19 656.86,415.31 647.54,428.00 C641.74,435.90 619.81,463.18 612.08,472.10 C608.46,476.28 600.33,485.69 594.00,493.02 C587.67,500.35 572.15,517.82 559.50,531.84 C546.85,545.86 531.42,563.10 525.20,570.16 C518.49,577.79 513.16,583.00 512.08,583.00 C511.07,583.00 507.16,579.73 503.38,575.74 ZM 524.00 366.68 C517.91,368.08 506.49,368.08 500.98,366.66 C490.05,363.85 478.91,354.73 474.17,344.71 C470.43,336.80 469.77,333.04 470.88,326.00 L 471.75 320.50 L 471.99 325.00 L 472.23 329.50 L 473.14 324.06 C474.18,317.77 475.00,316.32 475.00,320.77 C475.00,323.01 475.56,324.04 477.04,324.51 C478.25,324.90 479.32,326.35 479.67,328.08 C479.99,329.69 480.76,330.99 481.38,330.99 C484.08,330.95 486.93,329.69 486.36,328.77 C486.02,328.23 486.28,327.44 486.95,327.03 C487.84,326.48 487.75,325.89 486.57,324.72 C484.71,322.85 484.48,319.89 486.23,320.25 C486.90,320.39 488.29,321.52 489.31,322.77 C491.13,324.99 491.13,325.12 489.09,328.58 C487.94,330.52 487.00,332.20 487.00,332.31 C487.00,332.41 488.15,332.50 489.55,332.50 C491.49,332.50 491.99,332.08 491.64,330.75 C491.39,329.79 491.62,329.00 492.15,329.00 C492.68,329.00 492.87,328.59 492.56,328.09 C492.25,327.59 492.97,327.44 494.15,327.75 C495.72,328.16 496.10,327.97 495.54,327.06 C494.91,326.05 495.22,326.05 497.08,327.04 C498.79,327.96 499.50,327.99 499.79,327.14 C500.00,326.51 501.55,326.00 503.24,326.00 C505.44,326.00 507.13,325.09 509.16,322.82 C510.72,321.07 512.00,319.25 512.00,318.77 C512.00,318.30 513.16,319.07 514.59,320.49 C516.40,322.31 517.78,322.89 519.21,322.43 C520.50,322.02 521.01,322.17 520.61,322.82 C519.85,324.05 523.51,325.42 525.03,324.48 C525.61,324.12 526.74,324.37 527.54,325.04 C528.72,326.01 529.00,325.93 529.00,324.62 C529.00,323.73 528.30,323.00 527.44,323.00 C526.58,323.00 526.17,322.53 526.53,321.95 C526.98,321.22 527.56,321.22 528.43,321.94 C529.12,322.51 529.92,322.75 530.21,322.46 C530.50,322.17 530.53,323.03 530.27,324.37 C529.83,326.67 531.54,328.14 534.39,327.90 C534.88,327.86 535.66,328.43 536.12,329.16 C536.76,330.16 536.97,330.18 536.98,329.25 C536.99,328.56 537.83,328.00 538.85,328.00 C541.10,328.00 544.00,324.97 544.00,322.61 C544.00,321.56 544.45,321.16 545.15,321.60 C545.87,322.04 546.04,321.87 545.60,321.16 C544.79,319.85 546.45,316.33 547.65,316.83 C548.09,317.00 548.60,316.70 548.78,316.15 C548.97,315.60 548.08,315.00 546.81,314.80 C545.35,314.58 544.65,313.91 544.90,312.98 C545.12,312.16 545.33,310.79 545.37,309.92 C545.40,309.05 546.00,308.33 546.70,308.33 C548.29,308.33 550.93,315.14 552.05,322.15 C552.80,326.82 552.85,326.51 552.41,319.75 C551.99,313.22 552.16,312.00 553.46,312.00 C554.35,312.00 555.06,312.96 555.15,314.25 C555.44,318.43 555.52,318.86 556.26,319.60 C556.62,319.95 556.84,321.01 556.93,322.24 C556.79,320.89 556.42,319.76 556.00,319.50 C555.39,319.12 555.00,320.68 555.00,323.50 C555.00,326.32 555.39,327.88 556.00,327.50 C556.45,327.22 556.83,325.96 556.96,324.50 C556.89,325.83 556.67,327.00 556.30,327.37 C555.91,327.75 555.50,329.87 555.39,332.07 C555.28,334.27 554.73,336.62 554.18,337.29 C553.62,337.95 553.15,338.95 553.12,339.50 C553.05,341.07 549.67,348.34 548.24,350.00 C540.84,358.60 531.68,364.91 524.00,366.68 ZM 657.00 406.15 C657.00,406.62 657.16,407.00 657.36,407.00 C658.22,407.00 666.33,393.53 666.33,392.10 C666.33,391.23 666.93,389.92 667.67,389.19 C668.40,388.46 669.00,386.54 669.00,384.94 C669.00,382.12 668.93,382.08 667.00,383.73 C665.77,384.79 665.00,386.68 665.00,388.66 C665.00,390.43 664.55,392.16 664.00,392.50 C663.45,392.84 662.99,393.88 662.98,394.81 C662.97,395.74 661.62,398.48 659.98,400.90 C658.34,403.32 657.00,405.68 657.00,406.15 ZM 519.00 235.00 C519.00,234.43 516.00,234.00 512.00,234.00 C508.00,234.00 505.00,234.43 505.00,235.00 C505.00,235.55 507.83,235.97 511.65,236.00 C511.27,236.00 510.86,236.00 510.44,236.00 C505.25,236.00 501.00,235.71 501.00,235.36 C501.00,233.32 505.18,232.06 512.04,232.03 C518.87,232.00 519.59,232.19 519.73,234.00 C519.85,235.69 519.37,235.96 512.73,236.00 C516.36,235.95 519.00,235.54 519.00,235.00 ZM 473.50 312.01 C473.15,313.10 472.49,314.00 472.04,314.00 C470.76,314.00 469.97,311.14 471.06,310.46 C471.59,310.13 471.85,309.56 471.62,309.18 C471.40,308.81 471.84,307.92 472.60,307.21 C473.37,306.50 474.02,306.28 474.04,306.71 C474.05,307.14 474.76,306.38 475.60,305.00 C476.68,303.25 476.94,303.10 476.49,304.50 C475.41,307.88 475.45,308.51 476.75,308.25 C477.44,308.11 478.00,308.48 478.00,309.06 C478.00,309.64 478.44,309.84 478.99,309.51 C479.62,309.12 479.67,309.73 479.12,311.20 C478.07,314.07 474.92,315.01 475.65,312.24 C475.93,311.16 475.39,309.75 474.38,308.93 C473.25,308.01 472.89,307.95 473.37,308.76 C473.79,309.45 473.84,310.91 473.50,312.01 ZM 437.14 275.85 C436.12,277.31 435.11,279.05 434.89,279.72 C434.65,280.47 433.98,280.61 433.15,280.10 C432.05,279.41 432.03,278.80 433.03,276.88 C435.02,273.05 436.06,272.08 437.57,272.66 C438.74,273.11 438.67,273.67 437.14,275.85 ZM 423.00 324.89 C423.00,327.50 422.48,328.98 421.44,329.39 C420.34,329.81 419.96,329.46 420.16,328.24 C420.32,327.28 420.04,325.85 419.55,325.06 C418.96,324.12 419.06,323.48 419.83,323.22 C420.48,323.01 420.76,322.42 420.45,321.91 C420.14,321.41 420.58,321.00 421.44,321.00 C422.59,321.00 423.00,322.03 423.00,324.89 ZM 530.00 284.12 C527.34,286.47 526.32,286.65 523.11,285.30 C520.86,284.36 520.05,283.55 520.72,282.88 C521.83,281.77 527.00,282.75 527.00,284.08 C527.00,284.55 527.79,284.65 528.75,284.31 C529.71,283.96 530.28,283.88 530.00,284.12 ZM 484.84 154.80 C490.26,153.80 494.63,152.62 494.81,152.07 C495.23,150.80 498.00,150.61 498.00,151.85 C498.00,152.32 505.54,152.96 514.75,153.28 C521.45,153.51 527.11,153.88 532.34,154.47 C526.91,153.94 520.05,153.49 514.00,153.30 C499.29,152.85 494.94,153.06 484.84,154.80 ZM 374.54 422.39 C377.34,425.20 377.32,423.47 374.50,419.00 C373.05,416.70 371.65,415.02 371.40,415.27 C370.67,415.99 372.67,420.53 374.54,422.39 ZM 516.64 282.50 C517.98,283.83 517.86,284.00 515.57,284.00 C514.16,284.00 513.00,283.58 513.00,283.06 C513.00,282.55 511.54,281.95 509.75,281.72 C506.98,281.38 507.14,281.30 510.82,281.16 C513.51,281.06 515.71,281.57 516.64,282.50 ZM 574.50 260.00 C574.84,260.55 574.64,261.00 574.06,261.00 C573.60,261.00 573.33,261.02 573.14,260.90 C572.83,260.69 572.79,260.08 572.58,258.25 C572.29,255.65 573.22,255.36 575.00,257.50 C575.93,258.62 575.94,259.00 575.06,259.00 C574.41,259.00 574.16,259.45 574.50,260.00 ZM 539.57 324.80 C539.57,325.80 538.82,326.66 537.90,326.73 C536.71,326.82 536.37,326.29 536.73,324.93 C537.37,322.49 539.57,322.39 539.57,324.80 ZM 472.82 316.67 C472.34,319.18 470.00,319.52 470.00,317.08 C470.00,315.86 470.65,315.00 471.57,315.00 C472.50,315.00 473.01,315.68 472.82,316.67 ZM 636.00 343.00 C635.27,344.36 635.26,345.00 635.96,345.00 C636.53,345.00 637.00,344.52 637.00,343.94 C637.00,343.36 637.45,343.16 638.00,343.50 C638.55,343.84 639.00,343.42 639.00,342.56 C639.00,340.37 637.27,340.62 636.00,343.00 ZM 599.43 295.67 C599.78,296.58 599.60,297.80 599.03,298.37 C598.32,299.08 598.00,299.05 598.00,298.28 C598.00,297.67 597.73,296.45 597.39,295.58 C597.06,294.71 597.24,294.00 597.79,294.00 C598.34,294.00 599.07,294.75 599.43,295.67 ZM 528.00 235.61 C528.00,236.37 527.55,237.00 527.00,237.00 C526.45,237.00 526.00,236.32 526.00,235.50 C526.00,234.68 525.47,234.00 524.83,234.00 C524.19,234.00 523.90,233.76 524.19,233.48 C525.11,232.55 528.00,234.17 528.00,235.61 ZM 603.88 181.44 C620.46,192.43 635.38,206.19 647.65,221.78 C642.61,215.51 637.02,209.40 630.86,203.43 C622.18,195.02 613.22,187.71 603.88,181.44 ZM 342.85 348.80 C341.83,343.67 341.52,337.38 341.51,324.00 C341.51,315.08 341.75,308.00 342.40,301.58 C341.76,307.99 341.52,315.06 341.55,324.00 C341.58,336.95 341.82,342.69 342.85,348.80 ZM 442.12 167.87 C454.93,161.95 468.41,157.72 482.57,155.20 C468.27,157.82 454.82,162.02 442.12,167.87 ZM 674.12 268.87 C674.92,271.06 675.66,273.28 676.35,275.50 C677.11,277.92 677.83,280.65 678.52,283.59 C677.28,278.57 675.81,273.66 674.12,268.87 ZM 559.86 160.40 C561.75,160.98 563.62,161.59 565.48,162.25 C563.63,161.60 561.75,160.98 559.86,160.40 Z" fill="rgba(248,119,33,1)"/>
<path d="M 574.50 260.00 C574.16,259.45 574.41,259.00 575.06,259.00 C575.94,259.00 575.93,258.62 575.00,257.50 C573.22,255.36 572.29,255.65 572.58,258.25 C572.66,258.98 572.72,259.51 572.78,259.91 C562.67,250.29 555.29,245.74 542.43,240.78 L 531.50 236.55 L 527.73 236.55 C527.90,236.30 528.00,235.97 528.00,235.61 C528.00,234.17 525.11,232.55 524.19,233.48 C523.90,233.76 524.19,234.00 524.83,234.00 C525.47,234.00 526.00,234.68 526.00,235.50 C526.00,235.91 526.11,236.28 526.29,236.55 L 512.00 236.53 C493.37,236.51 492.14,236.64 484.50,239.24 C471.93,243.52 460.53,250.45 452.41,258.75 C448.50,262.74 444.87,266.00 444.32,266.00 C443.78,266.00 442.70,267.24 441.92,268.75 C441.14,270.26 439.78,272.30 438.91,273.27 C438.69,273.51 438.45,273.82 438.19,274.16 C438.58,273.31 438.35,272.97 437.57,272.66 C436.06,272.08 435.02,273.05 433.03,276.88 C432.03,278.80 432.05,279.41 433.15,280.10 C433.64,280.40 434.07,280.48 434.39,280.33 C434.00,280.93 433.63,281.42 433.36,281.71 C431.18,284.02 426.16,297.54 424.53,305.45 C423.16,312.14 422.70,329.05 423.32,336.89 C423.14,336.68 422.89,336.51 422.57,336.39 C421.71,336.06 420.95,334.60 420.88,333.14 C420.77,330.54 420.75,330.54 420.00,333.50 C419.24,336.49 419.24,336.49 419.12,333.83 C418.97,330.54 418.05,328.00 416.99,328.00 C415.92,328.00 414.23,333.06 414.56,335.25 C414.80,336.82 413.92,337.45 412.49,336.75 C411.75,336.39 409.01,341.93 408.97,343.86 C408.93,345.93 406.64,349.00 405.14,349.00 C404.51,349.00 404.00,349.93 404.00,351.07 C404.00,352.64 403.46,353.06 401.76,352.82 C400.53,352.64 399.37,351.71 399.19,350.75 C398.94,349.43 399.29,349.17 400.68,349.70 C402.42,350.36 402.42,350.31 400.74,348.61 C399.77,347.64 399.28,346.36 399.65,345.76 C400.04,345.12 399.84,344.98 399.14,345.41 C398.49,345.81 398.18,346.47 398.43,346.89 C398.68,347.30 397.45,348.50 395.70,349.56 C392.70,351.37 392.64,351.51 394.75,351.81 C397.37,352.19 397.53,352.90 395.59,355.54 C394.75,356.70 394.50,358.08 394.98,358.99 C395.46,359.88 395.30,360.91 394.60,361.50 C393.04,362.83 390.70,363.29 391.41,362.14 C391.72,361.64 391.17,361.02 390.19,360.76 C388.80,360.40 388.35,360.95 388.18,363.26 C387.86,367.39 386.27,370.00 384.05,370.00 C383.01,370.00 381.43,370.28 380.54,370.62 C379.05,371.19 379.06,371.41 380.62,373.13 C381.55,374.17 382.03,375.31 381.67,375.66 C381.31,376.02 381.48,376.87 382.05,377.56 C382.84,378.51 382.24,378.76 379.49,378.63 C376.19,378.47 375.95,378.65 376.49,380.81 C376.91,382.49 376.73,382.95 375.89,382.43 C375.12,381.95 374.95,382.12 375.43,382.89 C375.84,383.55 375.57,384.83 374.84,385.74 C374.10,386.64 374.01,387.08 374.64,386.70 C375.30,386.31 376.00,386.89 376.32,388.11 C376.67,389.44 377.31,389.93 378.09,389.45 C378.83,388.99 379.05,389.11 378.65,389.75 C378.29,390.33 377.09,390.58 375.98,390.29 C374.37,389.86 374.09,390.13 374.58,391.63 C375.07,393.13 374.98,393.21 374.16,392.04 C373.26,390.78 372.85,390.82 371.16,392.35 C369.90,393.50 368.97,393.76 368.55,393.08 C368.13,392.40 367.13,392.73 365.80,393.98 C364.64,395.05 363.34,395.71 362.91,395.45 C362.48,395.18 362.50,396.21 362.96,397.73 C364.47,402.76 365.20,404.00 366.26,403.34 C366.87,402.96 367.01,403.17 366.60,403.85 C366.19,404.51 366.48,405.00 367.27,405.00 C368.04,405.00 368.71,405.56 368.76,406.25 C368.81,406.94 369.11,408.85 369.43,410.50 C369.94,413.15 369.87,413.26 368.84,411.50 C368.20,410.40 367.38,409.27 367.02,409.00 C364.77,407.26 353.00,384.72 353.00,382.15 C353.00,381.52 352.66,381.00 352.25,380.99 C351.84,380.99 350.68,378.17 349.67,374.74 C348.66,371.31 347.43,367.48 346.94,366.24 C346.44,365.00 345.03,359.37 343.81,353.74 C341.96,345.18 341.58,340.29 341.55,324.00 C341.50,303.03 342.85,292.32 347.58,276.38 C350.23,267.44 358.31,248.70 363.20,240.15 C367.20,233.16 382.45,212.88 388.14,206.98 C415.71,178.38 447.10,161.37 484.20,154.91 C494.76,153.07 498.98,152.84 514.00,153.30 C523.62,153.60 535.33,154.57 540.00,155.46 C574.93,162.14 604.20,177.59 630.86,203.43 C662.68,234.27 679.38,268.78 683.00,311.17 C683.90,321.76 683.80,325.85 682.42,336.17 C681.51,342.95 680.35,349.02 679.84,349.65 C679.34,350.28 678.55,354.13 678.10,358.20 C677.64,362.27 676.78,366.48 676.19,367.55 C675.60,368.62 674.36,371.63 673.43,374.24 C671.51,379.61 669.60,381.78 668.43,379.89 C667.96,379.13 668.11,378.95 668.85,379.40 C669.58,379.86 670.00,379.36 670.00,378.06 C670.00,376.93 669.44,375.99 668.75,375.98 C667.85,375.97 667.90,375.72 668.89,375.09 C669.70,374.58 670.06,373.33 669.75,372.15 C669.45,371.02 669.64,369.95 670.17,369.78 C671.51,369.33 671.95,364.01 670.89,361.21 C670.40,359.93 669.59,359.13 669.09,359.45 C668.58,359.76 667.96,359.45 667.71,358.76 C667.35,357.78 666.94,357.81 665.88,358.90 C664.71,360.08 664.71,360.17 665.90,359.49 C666.85,358.96 667.07,359.07 666.60,359.85 C665.72,361.26 662.34,361.37 661.50,360.00 C661.16,359.45 660.43,359.00 659.88,359.00 C659.33,359.00 659.14,359.41 659.45,359.91 C659.76,360.42 659.45,361.06 658.76,361.34 C658.07,361.61 658.51,361.88 659.75,361.92 C662.40,362.01 662.83,365.06 660.48,367.02 C659.64,367.72 658.85,368.11 658.73,367.89 C656.34,363.74 656.29,363.41 657.67,360.71 C658.96,358.18 658.90,357.69 657.01,355.28 C655.86,353.83 653.93,351.95 652.71,351.12 C650.60,349.67 650.57,349.68 652.00,351.48 C653.37,353.21 653.34,353.31 651.67,352.69 C650.66,352.31 649.65,352.00 649.42,352.00 C649.19,352.00 649.00,351.33 649.00,350.50 C649.00,349.67 648.37,349.00 647.61,349.00 C645.81,349.00 641.06,345.08 642.81,345.03 C643.55,345.01 643.80,344.49 643.39,343.83 C642.91,343.04 643.22,342.87 644.34,343.30 C645.32,343.68 646.01,343.44 646.02,342.72 C646.03,341.89 646.31,341.95 646.91,342.90 C647.45,343.74 648.50,344.02 649.57,343.61 C650.55,343.23 651.66,343.45 652.06,344.10 C652.53,344.86 653.01,344.53 653.46,343.13 C653.83,341.96 654.55,341.00 655.07,341.00 C656.18,341.00 656.33,336.32 655.24,335.65 C654.82,335.39 653.67,335.77 652.68,336.49 C651.48,337.37 651.25,338.04 651.99,338.49 C652.79,338.99 652.78,339.56 651.94,340.58 C651.30,341.35 650.30,341.69 649.73,341.33 C649.13,340.96 648.99,341.18 649.40,341.85 C649.80,342.48 649.67,343.00 649.12,343.00 C648.57,343.00 647.82,342.52 647.46,341.93 C647.09,341.34 646.17,341.11 645.40,341.40 C644.63,341.70 643.97,341.61 643.92,341.22 C643.63,338.42 642.97,336.58 641.92,335.62 C641.01,334.78 640.88,334.81 641.41,335.75 C641.88,336.58 641.40,337.00 640.00,337.00 C638.58,337.00 638.12,336.59 638.61,335.75 C639.01,335.06 638.39,335.33 637.23,336.35 C635.10,338.22 632.40,337.78 633.65,335.76 C634.08,335.07 633.75,334.88 632.76,335.26 C631.87,335.60 630.47,335.08 629.55,334.05 C628.20,332.56 627.48,332.43 625.54,333.35 C624.24,333.96 623.42,334.92 623.72,335.48 C624.02,336.04 623.14,335.38 621.76,334.00 C619.80,332.05 619.50,331.18 620.38,330.06 C621.25,328.94 621.21,328.79 620.18,329.41 C619.37,329.90 618.39,329.55 617.63,328.51 C615.80,326.01 611.59,326.90 611.17,329.86 L 610.83 332.23 L 609.49 329.65 C608.76,328.24 608.30,325.22 608.47,322.94 C609.03,315.42 606.43,310.57 604.85,316.19 C604.34,318.00 604.15,317.63 603.98,314.50 L 603.77 310.50 L 602.94 314.50 C602.49,316.70 602.09,321.45 602.06,325.07 C602.03,328.22 601.63,332.46 601.09,336.19 C601.70,331.33 602.01,325.27 601.71,320.50 C600.88,306.77 598.47,297.74 592.32,285.18 C587.28,274.90 585.84,272.93 576.63,263.68 C575.70,262.75 574.80,261.85 573.92,261.00 C573.96,261.00 574.01,261.00 574.06,261.00 C574.64,261.00 574.84,260.55 574.50,260.00 ZM 473.50 312.01 C473.84,310.91 473.79,309.45 473.37,308.76 C472.89,307.95 473.25,308.01 474.38,308.93 C475.39,309.75 475.93,311.16 475.65,312.24 C474.92,315.01 478.07,314.07 479.12,311.20 C479.67,309.73 479.62,309.12 478.99,309.51 C478.44,309.84 478.00,309.64 478.00,309.06 C478.00,308.48 477.44,308.11 476.75,308.25 C475.45,308.51 475.41,307.88 476.49,304.50 C476.94,303.10 476.68,303.25 475.60,305.00 C474.76,306.38 474.05,307.14 474.04,306.71 C474.02,306.28 473.37,306.50 472.60,307.21 C471.87,307.89 471.43,308.74 471.60,309.14 C471.54,309.04 471.45,308.99 471.31,308.98 C470.86,308.98 470.95,308.64 471.50,308.23 C472.05,307.83 473.40,305.73 474.50,303.56 C478.13,296.41 485.50,289.42 493.64,285.40 C499.90,282.30 502.56,281.58 509.01,281.21 C514.55,280.88 519.52,281.30 524.13,282.53 C522.74,282.29 521.26,282.34 520.72,282.88 C520.05,283.55 520.86,284.36 523.11,285.30 C526.16,286.58 527.24,286.49 529.61,284.46 C534.08,286.42 538.27,289.28 542.43,293.11 C547.53,297.81 552.88,306.57 554.72,312.81 C554.41,312.31 553.96,312.00 553.46,312.00 C552.16,312.00 551.99,313.22 552.41,319.75 C552.85,326.51 552.80,326.82 552.05,322.15 C550.93,315.14 548.29,308.33 546.70,308.33 C546.00,308.33 545.40,309.05 545.37,309.92 C545.33,310.79 545.12,312.16 544.90,312.98 C544.65,313.91 545.35,314.58 546.81,314.80 C548.08,315.00 548.97,315.60 548.78,316.15 C548.60,316.70 548.09,317.00 547.65,316.83 C546.45,316.33 544.79,319.85 545.60,321.16 C546.04,321.87 545.87,322.04 545.15,321.60 C544.45,321.16 544.00,321.56 544.00,322.61 C544.00,324.97 541.10,328.00 538.85,328.00 C537.83,328.00 536.99,328.56 536.98,329.25 C536.97,330.18 536.76,330.16 536.12,329.16 C535.66,328.43 534.88,327.86 534.39,327.90 C531.54,328.14 529.83,326.67 530.27,324.37 C530.53,323.03 530.50,322.17 530.21,322.46 C529.92,322.75 529.12,322.51 528.43,321.94 C527.56,321.22 526.98,321.22 526.53,321.95 C526.17,322.53 526.58,323.00 527.44,323.00 C528.30,323.00 529.00,323.73 529.00,324.62 C529.00,325.93 528.72,326.01 527.54,325.04 C526.74,324.37 525.61,324.12 525.03,324.48 C523.51,325.42 519.85,324.05 520.61,322.82 C521.01,322.17 520.50,322.02 519.21,322.43 C517.78,322.89 516.40,322.31 514.59,320.49 C513.16,319.07 512.00,318.30 512.00,318.77 C512.00,319.25 510.72,321.07 509.16,322.82 C507.13,325.09 505.44,326.00 503.24,326.00 C501.55,326.00 500.00,326.51 499.79,327.14 C499.50,327.99 498.79,327.96 497.08,327.04 C495.22,326.05 494.91,326.05 495.54,327.06 C496.10,327.97 495.72,328.16 494.15,327.75 C492.97,327.44 492.25,327.59 492.56,328.09 C492.87,328.59 492.68,329.00 492.15,329.00 C491.62,329.00 491.39,329.79 491.64,330.75 C491.99,332.08 491.49,332.50 489.55,332.50 C488.15,332.50 487.00,332.41 487.00,332.31 C487.00,332.20 487.94,330.52 489.09,328.58 C491.13,325.12 491.13,324.99 489.31,322.77 C488.29,321.52 486.90,320.39 486.23,320.25 C484.48,319.89 484.71,322.85 486.57,324.72 C487.75,325.89 487.84,326.48 486.95,327.03 C486.28,327.44 486.02,328.23 486.36,328.77 C486.93,329.69 484.08,330.95 481.38,330.99 C480.76,330.99 479.99,329.69 479.67,328.08 C479.32,326.35 478.25,324.90 477.04,324.51 C475.56,324.04 475.00,323.01 475.00,320.77 C475.00,316.32 474.18,317.77 473.14,324.06 L 472.23 329.50 L 471.99 325.00 L 471.75 320.50 L 470.88 326.00 C470.40,329.07 470.25,331.52 470.55,333.96 C469.38,328.91 468.98,323.84 469.60,319.50 C469.99,316.75 470.38,313.82 470.45,312.98 C470.48,312.74 470.53,312.47 470.59,312.19 C470.76,313.10 471.32,314.00 472.04,314.00 C472.49,314.00 473.15,313.10 473.50,312.01 ZM 519.73 234.00 C519.59,232.19 518.87,232.00 512.04,232.03 C505.18,232.06 501.00,233.32 501.00,235.36 C501.00,235.71 505.25,236.00 510.44,236.00 C519.26,236.00 519.87,235.87 519.73,234.00 ZM 657.00 406.15 C657.00,405.68 658.34,403.32 659.98,400.90 C661.62,398.48 662.97,395.74 662.98,394.81 C662.99,393.88 663.45,392.84 664.00,392.50 C664.55,392.16 665.00,390.43 665.00,388.66 C665.00,386.68 665.77,384.79 667.00,383.73 C668.93,382.08 669.00,382.12 669.00,384.94 C669.00,386.54 668.40,388.46 667.67,389.19 C666.93,389.92 666.33,391.23 666.33,392.10 C666.33,393.53 658.22,407.00 657.36,407.00 C657.16,407.00 657.00,406.62 657.00,406.15 ZM 423.00 324.89 C423.00,322.03 422.59,321.00 421.44,321.00 C420.58,321.00 420.14,321.41 420.45,321.91 C420.76,322.42 420.48,323.01 419.83,323.22 C419.06,323.48 418.96,324.12 419.55,325.06 C420.04,325.85 420.32,327.28 420.16,328.24 C419.96,329.46 420.34,329.81 421.44,329.39 C422.48,328.98 423.00,327.50 423.00,324.89 ZM 374.54 422.39 C372.67,420.53 370.67,415.99 371.40,415.27 C371.65,415.02 373.05,416.70 374.50,419.00 C377.32,423.47 377.34,425.20 374.54,422.39 ZM 516.64 282.50 C515.71,281.57 513.51,281.06 510.82,281.16 C507.14,281.30 506.98,281.38 509.75,281.72 C511.54,281.95 513.00,282.55 513.00,283.06 C513.00,283.58 514.16,284.00 515.57,284.00 C517.86,284.00 517.98,283.83 516.64,282.50 ZM 539.57 324.80 C539.57,322.39 537.37,322.49 536.73,324.93 C536.37,326.29 536.71,326.82 537.90,326.73 C538.82,326.66 539.57,325.80 539.57,324.80 ZM 472.82 316.67 C473.01,315.68 472.50,315.00 471.57,315.00 C470.65,315.00 470.00,315.86 470.00,317.08 C470.00,319.52 472.34,319.18 472.82,316.67 ZM 636.00 343.00 C637.27,340.62 639.00,340.37 639.00,342.56 C639.00,343.42 638.55,343.84 638.00,343.50 C637.45,343.16 637.00,343.36 637.00,343.94 C637.00,344.52 636.53,345.00 635.96,345.00 C635.26,345.00 635.27,344.36 636.00,343.00 ZM 599.43 295.67 C599.07,294.75 598.34,294.00 597.79,294.00 C597.24,294.00 597.06,294.71 597.39,295.58 C597.73,296.45 598.00,297.67 598.00,298.28 C598.00,299.05 598.32,299.08 599.03,298.37 C599.60,297.80 599.78,296.58 599.43,295.67 ZM 485.60 358.67 C484.05,357.52 482.60,356.31 481.35,355.10 C479.41,353.24 477.62,350.84 476.05,348.12 C478.48,351.99 481.80,355.62 485.60,358.67 ZM 529.03 284.21 C528.94,284.24 528.85,284.27 528.75,284.31 C527.79,284.65 527.00,284.55 527.00,284.08 C527.00,283.71 526.60,283.37 526.01,283.09 C527.03,283.42 528.04,283.79 529.03,284.21 ZM 582.08 380.50 C586.07,376.12 592.62,363.68 596.16,354.94 C592.71,363.76 586.21,375.96 582.08,380.50 ZM 423.53 338.90 C423.72,340.23 423.96,341.00 424.26,341.00 C424.79,341.00 425.02,341.83 424.75,342.85 C425.02,341.82 424.71,341.00 424.05,341.00 C423.32,341.00 423.11,340.23 423.50,339.00 C423.51,338.96 423.52,338.93 423.53,338.90 ZM 556.34 319.67 C556.79,320.12 557.00,321.91 556.98,323.66 C556.99,321.89 556.75,320.08 556.26,319.60 C555.55,318.88 555.44,318.46 555.18,314.69 C555.25,315.06 555.30,315.41 555.34,315.75 C555.52,317.54 555.97,319.31 556.34,319.67 ZM 598.58 346.27 C598.55,346.13 598.51,346.02 598.46,345.94 C598.19,345.50 598.38,344.88 598.89,344.57 C599.21,344.37 599.51,343.78 599.81,342.87 C599.60,343.61 599.39,344.17 599.20,344.48 C598.96,344.88 598.72,345.59 598.58,346.27 ZM 471.62 309.18 L 471.62 309.18 C471.80,309.47 471.68,309.89 471.36,310.22 C471.63,309.79 471.71,309.40 471.62,309.18 ZM 435.98 277.63 C435.96,277.67 435.93,277.72 435.91,277.77 C435.67,278.23 435.40,278.72 435.12,279.19 C435.32,278.77 435.63,278.22 435.98,277.63 Z" fill="rgba(251,125,37,1)"/>
<path d="M 507.50 446.58 C504.39,445.19 443.00,383.99 443.00,382.28 C443.00,381.74 442.06,380.22 440.91,378.90 C438.65,376.31 432.00,365.34 432.00,364.20 C431.99,363.81 430.87,361.29 429.50,358.58 C428.12,355.87 426.98,352.72 426.96,351.58 C426.95,350.44 426.33,348.42 425.60,347.10 C424.87,345.78 424.48,343.86 424.75,342.85 C425.02,341.83 424.79,341.00 424.26,341.00 C422.51,341.00 422.72,314.29 424.53,305.45 C426.16,297.54 431.18,284.02 433.36,281.71 C433.99,281.05 435.13,279.27 435.91,277.77 C436.69,276.26 438.04,274.24 438.91,273.27 C439.78,272.30 441.14,270.26 441.92,268.75 C442.70,267.24 443.78,266.00 444.32,266.00 C444.87,266.00 448.50,262.74 452.41,258.75 C460.53,250.45 471.93,243.52 484.50,239.24 C492.14,236.64 493.37,236.51 512.00,236.53 L 531.50 236.55 L 542.43 240.78 C556.86,246.35 564.39,251.40 576.63,263.68 C585.84,272.93 587.28,274.90 592.32,285.18 C598.47,297.74 600.88,306.77 601.71,320.50 C602.27,329.63 600.65,343.48 598.89,344.57 C598.38,344.88 598.19,345.50 598.46,345.94 C600.11,348.60 588.14,373.85 582.08,380.50 C562.70,401.79 519.82,444.86 516.40,446.48 C512.54,448.31 511.40,448.32 507.50,446.58 ZM 524.00 366.68 C531.68,364.91 540.84,358.60 548.24,350.00 C549.67,348.34 553.05,341.07 553.12,339.50 C553.15,338.95 553.62,337.95 554.18,337.29 C554.73,336.62 555.28,334.27 555.39,332.07 C555.50,329.87 555.91,327.75 556.30,327.37 C557.19,326.48 557.22,320.55 556.34,319.67 C555.97,319.31 555.52,317.54 555.34,315.75 C554.72,309.69 548.40,298.62 542.43,293.11 C532.56,284.01 522.50,280.42 509.01,281.21 C502.56,281.58 499.90,282.30 493.64,285.40 C485.50,289.42 478.13,296.41 474.50,303.56 C473.40,305.73 472.05,307.83 471.50,308.23 C470.95,308.64 470.86,308.98 471.31,308.98 C471.75,308.99 471.78,309.55 471.36,310.23 C470.94,310.91 470.53,312.15 470.45,312.98 C470.38,313.82 469.99,316.75 469.60,319.50 C467.96,330.92 473.43,347.49 481.35,355.10 C486.57,360.13 495.11,365.15 500.98,366.66 C506.49,368.08 517.91,368.08 524.00,366.68 Z" fill="rgba(254,252,248,1)"/>
</g>
</svg>